<svg width="12" height="12" viewBox="0 0 12 12" fill="none" xmlns="http://www.w3.org/2000/svg">
<path d="M0.208197 0C0.0830313 0 -0.0102181 0.0898834 0.00089948 0.199712L1.05603 10.629C1.06715 10.7388 1.17487 10.8528 1.29551 10.8823L5.77297 11.9779C5.89359 12.0074 6.09092 12.0074 6.21156 11.9779L10.7026 10.8806C10.8233 10.8511 10.9311 10.7371 10.9422 10.6273L11.9991 0.199712C12.0103 0.0898834 11.9169 0 11.7918 0H0.208197ZM9.75203 2.39191C9.74206 2.48988 9.72483 2.65996 9.71371 2.76982L9.68591 3.04345C9.67472 3.15326 9.65878 3.31031 9.65038 3.39241C9.642 3.47454 9.63405 3.54173 9.63259 3.54173C9.63118 3.54173 9.52758 3.54173 9.40244 3.54173H6.22755C6.10238 3.54173 5.99894 3.54173 5.99759 3.54173C5.99623 3.54173 5.89269 3.54173 5.76752 3.54173H4.09542C3.97025 3.54173 3.877 3.63162 3.88812 3.74145L3.98565 4.70216C3.99677 4.81196 4.10832 4.90187 4.23346 4.90187H5.76755C5.89272 4.90187 5.99623 4.90187 5.99761 4.90187C5.999 4.90187 6.10243 4.90187 6.22757 4.90187H8.86446C8.98963 4.90187 9.18331 4.90187 9.29486 4.90187C9.40632 4.90187 9.48933 4.98205 9.47923 5.08002C9.46907 5.17799 9.45173 5.34812 9.44063 5.45793L9.12703 8.55521C9.11583 8.66506 9.10168 8.80539 9.09559 8.86707C9.08937 8.92871 8.98564 9.00327 8.86502 9.03275L6.2193 9.67921C6.09868 9.70865 5.99849 9.73303 5.9966 9.7334C5.99474 9.73375 5.89458 9.70989 5.77391 9.68043L3.12537 9.0328C3.00475 9.00332 2.89698 8.88932 2.88589 8.77946L2.7154 7.09324C2.70428 6.98339 2.79764 6.89351 2.9228 6.89351H3.16452C3.28968 6.89351 3.49448 6.89351 3.61962 6.89351H3.98006C4.10523 6.89351 4.21667 6.98339 4.22787 7.09324L4.29473 7.75334C4.30585 7.86319 4.41376 7.97656 4.53461 8.00532L5.77348 8.30014C5.89426 8.3289 5.99357 8.35243 5.99413 8.35243C5.99469 8.35243 6.09395 8.32885 6.21478 8.30009L7.45588 8.00457C7.57666 7.97581 7.68467 7.8624 7.69587 7.75259L7.83045 6.43007C7.84164 6.32022 7.74839 6.23034 7.62323 6.23034H6.22757C6.10241 6.23034 5.99897 6.23034 5.99761 6.23034C5.99626 6.23034 5.89272 6.23034 5.76755 6.23034H2.85533C2.73016 6.23034 2.61872 6.14043 2.6076 6.03063L2.27737 2.76984C2.26625 2.65999 2.24902 2.48995 2.23905 2.39193C2.22918 2.29396 2.32341 2.21378 2.44858 2.21378H5.76755C5.89272 2.21378 5.99623 2.21378 5.99761 2.21378C5.999 2.21378 6.10243 2.21378 6.22757 2.21378H9.54253C9.66767 2.21373 9.76195 2.29389 9.75203 2.39191Z" fill="#DD512A"/>
</svg>
