<svg width="20" height="12" viewBox="0 0 20 12" fill="none" xmlns="http://www.w3.org/2000/svg">
<g clip-path="url(#clip0)">
<path d="M18.5577 12H1.44231C1.05978 12 0.692927 11.8518 0.422442 11.5881C0.151957 11.3244 0 10.9667 0 10.5938L0 1.40625C0 1.03329 0.151957 0.675604 0.422442 0.411881C0.692927 0.148158 1.05978 0 1.44231 0L18.5577 0C18.9402 0 19.3071 0.148158 19.5776 0.411881C19.848 0.675604 20 1.03329 20 1.40625V10.5938C20 10.9667 19.848 11.3244 19.5776 11.5881C19.3071 11.8518 18.9402 12 18.5577 12ZM4.80769 9.1875V5.53125L6.73077 7.875L8.65385 5.53125V9.1875H10.5769V2.8125H8.65385L6.73077 5.15625L4.80769 2.8125H2.88462V9.1875H4.80769ZM17.6923 6H15.7692V2.8125H13.8462V6H11.9231L14.8077 9.28125L17.6923 6Z" fill="#1F90FF"/>
</g>
<defs>
<clipPath id="clip0">
<rect width="20" height="12" fill="white"/>
</clipPath>
</defs>
</svg>
